<mxfile host="Electron" modified="2024-01-10T02:35:44.814Z" agent="Mozilla/5.0 (X11; Linux x86_64) AppleWebKit/537.36 (KHTML, like Gecko) draw.io/22.1.16 Chrome/120.0.6099.109 Electron/28.1.0 Safari/537.36" etag="V_jcpn5NWmUtCqGib47i" version="22.1.16" type="device">
  <diagram name="Page-1" id="efn24r7fJC2zZFye6fND">
    <mxGraphModel dx="989" dy="668" grid="1" gridSize="10" guides="1" tooltips="1" connect="1" arrows="1" fold="1" page="1" pageScale="1" pageWidth="827" pageHeight="1169" math="0" shadow="0">
      <root>
        <mxCell id="0" />
        <mxCell id="1" parent="0" />
        <mxCell id="TbprE2JJhqn2-X_XHZVq-37" style="rounded=0;orthogonalLoop=1;jettySize=auto;html=1;exitX=0.2;exitY=0.98;exitDx=0;exitDy=0;entryX=0.75;entryY=0;entryDx=0;entryDy=0;endArrow=none;endFill=0;edgeStyle=orthogonalEdgeStyle;strokeColor=#CDD6F4;strokeWidth=5;exitPerimeter=0;" parent="1" source="TbprE2JJhqn2-X_XHZVq-1" target="TbprE2JJhqn2-X_XHZVq-2" edge="1">
          <mxGeometry relative="1" as="geometry" />
        </mxCell>
        <mxCell id="TbprE2JJhqn2-X_XHZVq-38" style="rounded=0;orthogonalLoop=1;jettySize=auto;html=1;exitX=0.801;exitY=0.988;exitDx=0;exitDy=0;entryX=0.25;entryY=0;entryDx=0;entryDy=0;endArrow=none;endFill=0;edgeStyle=orthogonalEdgeStyle;strokeColor=#CDD6F4;strokeWidth=5;exitPerimeter=0;" parent="1" source="TbprE2JJhqn2-X_XHZVq-1" target="TbprE2JJhqn2-X_XHZVq-3" edge="1">
          <mxGeometry relative="1" as="geometry" />
        </mxCell>
        <mxCell id="TbprE2JJhqn2-X_XHZVq-1" value="&lt;font style=&quot;font-size: 24px;&quot;&gt;Map types&lt;/font&gt;" style="rounded=1;whiteSpace=wrap;html=1;fontStyle=1;fontColor=#1E1E2E;labelBackgroundColor=none;fillColor=#cdd6f4;strokeColor=none;fontFamily=Montserrat;" parent="1" vertex="1">
          <mxGeometry x="160" y="150" width="200" height="60" as="geometry" />
        </mxCell>
        <mxCell id="TbprE2JJhqn2-X_XHZVq-2" value="&lt;font style=&quot;font-size: 24px;&quot;&gt;Mental&lt;/font&gt;" style="rounded=1;whiteSpace=wrap;html=1;fontStyle=0;fontColor=#1E1E2E;labelBackgroundColor=none;fillColor=#cdd6f4;strokeColor=none;fontFamily=Montserrat;" parent="1" vertex="1">
          <mxGeometry x="50" y="250" width="200" height="60" as="geometry" />
        </mxCell>
        <mxCell id="TbprE2JJhqn2-X_XHZVq-31" style="rounded=0;orthogonalLoop=1;jettySize=auto;html=1;exitX=0.75;exitY=1;exitDx=0;exitDy=0;entryX=0.25;entryY=0;entryDx=0;entryDy=0;endArrow=none;endFill=0;edgeStyle=orthogonalEdgeStyle;strokeColor=#CDD6F4;strokeWidth=5;" parent="1" source="TbprE2JJhqn2-X_XHZVq-3" target="TbprE2JJhqn2-X_XHZVq-5" edge="1">
          <mxGeometry relative="1" as="geometry" />
        </mxCell>
        <mxCell id="TbprE2JJhqn2-X_XHZVq-34" style="rounded=0;orthogonalLoop=1;jettySize=auto;html=1;exitX=0.75;exitY=1;exitDx=0;exitDy=0;entryX=0;entryY=0.5;entryDx=0;entryDy=0;endArrow=none;endFill=0;edgeStyle=orthogonalEdgeStyle;strokeColor=#CDD6F4;strokeWidth=5;dashed=1;" parent="1" source="TbprE2JJhqn2-X_XHZVq-3" target="TbprE2JJhqn2-X_XHZVq-10" edge="1">
          <mxGeometry relative="1" as="geometry" />
        </mxCell>
        <mxCell id="TbprE2JJhqn2-X_XHZVq-3" value="&lt;font style=&quot;font-size: 24px;&quot;&gt;Tangible&lt;/font&gt;" style="rounded=1;whiteSpace=wrap;html=1;fontStyle=0;fontColor=#1E1E2E;labelBackgroundColor=none;fillColor=#cdd6f4;strokeColor=none;fontFamily=Montserrat;" parent="1" vertex="1">
          <mxGeometry x="270" y="250" width="200" height="60" as="geometry" />
        </mxCell>
        <mxCell id="TbprE2JJhqn2-X_XHZVq-4" value="&lt;font style=&quot;font-size: 24px;&quot;&gt;Reference&lt;/font&gt;" style="rounded=1;whiteSpace=wrap;html=1;fontStyle=0;fontColor=#1E1E2E;labelBackgroundColor=none;fillColor=#cdd6f4;strokeColor=none;fontFamily=Montserrat;" parent="1" vertex="1">
          <mxGeometry x="150" y="350" width="200" height="60" as="geometry" />
        </mxCell>
        <mxCell id="TbprE2JJhqn2-X_XHZVq-32" style="rounded=0;orthogonalLoop=1;jettySize=auto;html=1;exitX=0.197;exitY=0.995;exitDx=0;exitDy=0;entryX=0.797;entryY=0.008;entryDx=0;entryDy=0;endArrow=none;endFill=0;edgeStyle=orthogonalEdgeStyle;strokeColor=#CDD6F4;strokeWidth=5;entryPerimeter=0;exitPerimeter=0;" parent="1" source="TbprE2JJhqn2-X_XHZVq-5" target="TbprE2JJhqn2-X_XHZVq-8" edge="1">
          <mxGeometry relative="1" as="geometry" />
        </mxCell>
        <mxCell id="TbprE2JJhqn2-X_XHZVq-33" style="rounded=0;orthogonalLoop=1;jettySize=auto;html=1;exitX=0.749;exitY=0.973;exitDx=0;exitDy=0;entryX=0.251;entryY=0.019;entryDx=0;entryDy=0;endArrow=none;endFill=0;edgeStyle=orthogonalEdgeStyle;strokeColor=#CDD6F4;strokeWidth=5;exitPerimeter=0;entryPerimeter=0;" parent="1" source="TbprE2JJhqn2-X_XHZVq-5" target="TbprE2JJhqn2-X_XHZVq-9" edge="1">
          <mxGeometry relative="1" as="geometry" />
        </mxCell>
        <mxCell id="TbprE2JJhqn2-X_XHZVq-5" value="&lt;font style=&quot;font-size: 24px;&quot;&gt;Thematic&lt;/font&gt;" style="rounded=1;whiteSpace=wrap;html=1;fontStyle=0;fontColor=#1E1E2E;labelBackgroundColor=none;fillColor=#cdd6f4;strokeColor=none;fontFamily=Montserrat;" parent="1" vertex="1">
          <mxGeometry x="370" y="350" width="200" height="60" as="geometry" />
        </mxCell>
        <mxCell id="TbprE2JJhqn2-X_XHZVq-6" value="&lt;font style=&quot;font-size: 24px;&quot;&gt;Single variable&lt;/font&gt;" style="rounded=1;whiteSpace=wrap;html=1;fontStyle=0;fontColor=#1E1E2E;labelBackgroundColor=none;fillColor=#cdd6f4;strokeColor=none;fontFamily=Montserrat;" parent="1" vertex="1">
          <mxGeometry x="370" y="550" width="190" height="60" as="geometry" />
        </mxCell>
        <mxCell id="TbprE2JJhqn2-X_XHZVq-7" value="&lt;font style=&quot;font-size: 24px;&quot;&gt;Multi-variable&lt;/font&gt;" style="rounded=1;whiteSpace=wrap;html=1;fontStyle=0;fontColor=#1E1E2E;labelBackgroundColor=none;fillColor=#cdd6f4;strokeColor=none;fontFamily=Montserrat;" parent="1" vertex="1">
          <mxGeometry x="580" y="550" width="200" height="60" as="geometry" />
        </mxCell>
        <mxCell id="TbprE2JJhqn2-X_XHZVq-8" value="&lt;font style=&quot;font-size: 24px;&quot;&gt;Qualitative&lt;/font&gt;" style="rounded=1;whiteSpace=wrap;html=1;fontStyle=0;fontColor=#1E1E2E;labelBackgroundColor=none;fillColor=#cdd6f4;strokeColor=none;fontFamily=Montserrat;" parent="1" vertex="1">
          <mxGeometry x="250" y="450" width="200" height="60" as="geometry" />
        </mxCell>
        <mxCell id="TbprE2JJhqn2-X_XHZVq-35" style="rounded=0;orthogonalLoop=1;jettySize=auto;html=1;exitX=0.213;exitY=0.977;exitDx=0;exitDy=0;entryX=0.75;entryY=0;entryDx=0;entryDy=0;endArrow=none;endFill=0;edgeStyle=orthogonalEdgeStyle;strokeColor=#CDD6F4;strokeWidth=5;exitPerimeter=0;" parent="1" source="TbprE2JJhqn2-X_XHZVq-9" target="TbprE2JJhqn2-X_XHZVq-6" edge="1">
          <mxGeometry relative="1" as="geometry" />
        </mxCell>
        <mxCell id="TbprE2JJhqn2-X_XHZVq-36" style="rounded=0;orthogonalLoop=1;jettySize=auto;html=1;exitX=0.8;exitY=0.989;exitDx=0;exitDy=0;entryX=0.25;entryY=0;entryDx=0;entryDy=0;endArrow=none;endFill=0;edgeStyle=orthogonalEdgeStyle;strokeColor=#CDD6F4;strokeWidth=5;exitPerimeter=0;" parent="1" source="TbprE2JJhqn2-X_XHZVq-9" target="TbprE2JJhqn2-X_XHZVq-7" edge="1">
          <mxGeometry relative="1" as="geometry" />
        </mxCell>
        <mxCell id="TbprE2JJhqn2-X_XHZVq-9" value="&lt;font style=&quot;font-size: 24px;&quot;&gt;Quantitative&lt;/font&gt;" style="rounded=1;whiteSpace=wrap;html=1;fontStyle=0;fontColor=#1E1E2E;labelBackgroundColor=none;fillColor=#cdd6f4;strokeColor=none;fontFamily=Montserrat;" parent="1" vertex="1">
          <mxGeometry x="470" y="450" width="200" height="60" as="geometry" />
        </mxCell>
        <mxCell id="TbprE2JJhqn2-X_XHZVq-10" value="&lt;font style=&quot;font-size: 24px;&quot;&gt;Virtual&lt;/font&gt;" style="rounded=1;whiteSpace=wrap;html=1;fontStyle=0;fontColor=#1E1E2E;labelBackgroundColor=none;fillColor=#cdd6f4;strokeColor=none;fontFamily=Montserrat;" parent="1" vertex="1">
          <mxGeometry x="590" y="300" width="200" height="60" as="geometry" />
        </mxCell>
        <mxCell id="TbprE2JJhqn2-X_XHZVq-30" style="edgeStyle=orthogonalEdgeStyle;rounded=0;orthogonalLoop=1;jettySize=auto;html=1;entryX=0.8;entryY=0.022;entryDx=0;entryDy=0;endArrow=none;endFill=0;fillColor=#dae8fc;strokeColor=#cdd6f4;strokeWidth=5;exitX=0.199;exitY=0.988;exitDx=0;exitDy=0;exitPerimeter=0;entryPerimeter=0;" parent="1" source="TbprE2JJhqn2-X_XHZVq-3" target="TbprE2JJhqn2-X_XHZVq-4" edge="1">
          <mxGeometry relative="1" as="geometry">
            <mxPoint x="320" y="220" as="sourcePoint" />
            <mxPoint x="320" y="261" as="targetPoint" />
          </mxGeometry>
        </mxCell>
      </root>
    </mxGraphModel>
  </diagram>
</mxfile>
